<svg width="35" height="20" viewBox="0 0 35 20" fill="none" xmlns="http://www.w3.org/2000/svg">
<path d="M16.6469 0.172615C16.3193 0.317291 15.2205 1.34975 8.27951 8.04431C0.615109 15.4294 0.273862 15.7648 0.137363 16.133C-0.0469098 16.6131 -0.0469098 16.9945 0.144188 17.4746C0.260212 17.7902 0.417186 17.9809 1.0792 18.6188C2.05517 19.5658 2.28722 19.6907 3.03113 19.6973C3.42698 19.6973 3.6522 19.6644 3.85013 19.5724C4.0344 19.4869 6.27298 17.3825 10.7979 13.0291L17.4659 6.6107L24.1406 13.0356C27.8056 16.567 30.9178 19.5066 31.0475 19.5724C31.1771 19.6315 31.5047 19.6973 31.7709 19.717C32.5217 19.7631 32.8629 19.5855 33.8525 18.6254C34.5145 17.9809 34.6647 17.7902 34.7875 17.4746C34.9718 17.0011 34.9786 16.6131 34.8012 16.1659C34.6783 15.8437 34.0027 15.1729 26.5976 8.04431C20.2914 1.97449 18.4555 0.238377 18.2166 0.139734C17.7662 -0.0575523 17.1314 -0.0443993 16.6469 0.172615Z" fill="#BA201F"/>
</svg>
