<svg width="6" height="8" viewBox="-1 -1 8 10" fill="none" xmlns="http://www.w3.org/2000/svg" preserveAspectRatio="xMidYMid meet">
<g clip-path="url(#clip0_135_84)">
<path d="M0 0.75C0 0.335938 0.335938 0 0.75 0V0.75V6.89687L2.78281 5.44531C2.9125 5.35156 3.08906 5.35156 3.21875 5.44531L5.25 6.89687V0.75H0.75V0H5.25C5.66406 0 6 0.335938 6 0.75V7.625C6 7.76562 5.92188 7.89375 5.79688 7.95781C5.67188 8.02187 5.52188 8.01094 5.40781 7.92969L3 6.21094L0.592188 7.92969C0.478125 8.01094 0.328125 8.02187 0.203125 7.95781C0.078125 7.89375 0 7.76562 0 7.625V0.75Z" fill="#BA201F"/>
</g>
<defs>
<clipPath id="clip0_135_84">
<rect width="6" height="8" fill="white"/>
</clipPath>
</defs>
</svg>
