<svg width="40" height="40" viewBox="0 0 40 40" fill="none" xmlns="http://www.w3.org/2000/svg">
<path d="M40 20C40 31.0457 31.0457 40 20 40C8.95431 40 0 31.0457 0 20C0 8.95431 8.95431 0 20 0C31.0457 0 40 8.95431 40 20Z" fill="white"/>
<g clip-path="url(#clip0_277_74)">
<path opacity="0.995" fill-rule="evenodd" clip-rule="evenodd" d="M29.9805 12.207C29.9805 12.4674 29.9805 12.7278 29.9805 12.9883C29.9 13.2534 29.7763 13.5008 29.6094 13.7304C27.5125 15.8208 25.4227 17.9172 23.3398 20.0195C25.4227 22.1218 27.5125 24.2182 29.6094 26.3086C29.7763 26.5382 29.9 26.7856 29.9805 27.0508C29.9805 27.3112 29.9805 27.5716 29.9805 27.832C29.9 28.0972 29.7763 28.3446 29.6094 28.5742C29.2513 28.9323 28.8932 29.2903 28.5352 29.6484C28.3488 29.7805 28.1535 29.8911 27.9492 29.9804C27.5977 29.9804 27.2461 29.9804 26.8945 29.9804C26.6725 29.9019 26.4642 29.7912 26.2695 29.6484C24.1791 27.5515 22.0828 25.4617 19.9805 23.3789C17.8781 25.4617 15.7818 27.5515 13.6914 29.6484C13.4968 29.7912 13.2884 29.9019 13.0664 29.9804C12.7148 29.9804 12.3633 29.9804 12.0117 29.9804C11.8074 29.8911 11.6121 29.7805 11.4258 29.6484C11.0677 29.2903 10.7096 28.9323 10.3516 28.5742C10.1847 28.3446 10.061 28.0972 9.98047 27.832C9.98047 27.5716 9.98047 27.3112 9.98047 27.0508C10.061 26.7856 10.1847 26.5382 10.3516 26.3086C12.4484 24.2182 14.5383 22.1218 16.6211 20.0195C14.5383 17.9172 12.4484 15.8208 10.3516 13.7304C10.1849 13.5012 10.0612 13.2538 9.98047 12.9883C9.98047 12.7278 9.98047 12.4674 9.98047 12.207C10.061 11.9418 10.1847 11.6944 10.3516 11.4648C10.7642 11.026 11.2004 10.6159 11.6602 10.2343C12.3684 9.90513 13.0455 9.95722 13.6914 10.3906C15.7818 12.4875 17.8781 14.5773 19.9805 16.6601C22.0828 14.5773 24.1791 12.4875 26.2695 10.3906C26.7219 10.0464 27.2297 9.92925 27.793 10.039C28.066 10.104 28.3134 10.2212 28.5352 10.3906C28.8932 10.7487 29.2513 11.1067 29.6094 11.4648C29.7763 11.6944 29.9 11.9418 29.9805 12.207Z" fill="#BA201F"/>
</g>
<defs>
<clipPath id="clip0_277_74">
<rect width="20" height="20" fill="white" transform="translate(10 10)"/>
</clipPath>
</defs>
</svg>
