<svg width="151" height="23" viewBox="0 0 151 23" fill="none" xmlns="http://www.w3.org/2000/svg">
<path d="M12.95 20.53L0.89 22.03L0.53 19L1.55 18.88L1.37 5.65L0.89 5.71L0.53 2.68L1.31 2.59V2.41L2.9 2.38L15.02 0.879998L15.2 2.38H15.74L16.01 20.5L12.95 20.53ZM12.74 4.24L4.4 5.29L4.58 18.49L12.92 17.47L12.74 4.24ZM33.2551 4.66L26.9551 5.44L27.1651 21.25L24.1351 21.28L23.9251 5.83L18.7651 6.46L18.4051 3.43L32.8951 1.63L33.2551 4.66ZM35.2004 22.12L32.3804 20.98L37.2704 8.8L36.4604 9.01L35.6204 6.1L38.7104 5.2L40.2104 1.45L43.0604 0.789999L43.8104 3.73L45.6104 3.22L46.4504 6.16L44.5604 6.7L47.8304 19.78L44.8904 20.53L41.6204 7.54L40.9604 7.72L35.2004 22.12ZM50.7833 2.56L53.8133 2.53L53.9333 11.86C57.8333 7.42 63.7433 0.399999 63.7433 0.37L66.0833 2.32C66.0533 2.35 63.2933 5.65 60.2933 9.16L65.7233 8.95L66.5933 11.14C66.5633 11.14 63.7433 17.32 66.3833 20.65L64.0133 22.54C61.4633 19.36 62.2133 14.8 62.9933 12.1L57.5933 12.31C56.1833 13.93 54.8933 15.4 53.9933 16.36L54.0533 20.65L51.0233 20.68L50.7833 2.56ZM69.887 1.66L72.917 1.63L73.157 17.8L81.377 16.78L81.167 1.66L84.197 1.63L84.437 18.01H84.107L84.287 19.48L69.797 21.28L69.437 18.25L70.097 18.16L69.887 1.66ZM88.9747 1.93L92.0047 1.9L92.2147 17.35L102.325 16.09L102.685 19.12L87.5647 21.01L87.2047 17.98L89.1847 17.74L88.9747 1.93ZM114.971 3.76L110.771 4.27L110.951 18.28L114.611 17.83L114.971 20.86L104.291 22.18L103.931 19.18L107.921 18.67L107.711 4.66L104.291 5.08L103.931 2.05L114.611 0.729998L114.971 3.76ZM132.787 3.58L122.617 4.84L122.677 9.16L132.427 7.96L132.607 9.46L133.957 8.77C134.797 10.36 134.647 12.88 133.657 15.28C133.027 16.87 132.007 18.43 130.687 19.69C129.307 20.98 127.597 21.94 125.557 22.27C123.007 22.66 120.037 22.03 116.737 19.69L118.477 17.2C121.057 19.03 123.277 19.54 125.107 19.24C126.457 19.03 127.627 18.37 128.587 17.47C129.607 16.51 130.357 15.34 130.837 14.14C131.287 13.03 131.527 11.98 131.497 11.14L122.737 12.25V13.69L119.707 13.72L119.677 12.64L118.297 12.79L117.907 9.76L119.647 9.55L119.587 5.23L118.297 5.38L117.907 2.35L119.557 2.14L119.527 2.08H120.217L132.427 0.549999L132.787 3.58ZM150.589 4.66L144.289 5.44L144.499 21.25L141.469 21.28L141.259 5.83L136.099 6.46L135.739 3.43L150.229 1.63L150.589 4.66Z" fill="#BA201F"/>
</svg>
