<svg width="19" height="18" viewBox="0 0 19 18" fill="none" xmlns="http://www.w3.org/2000/svg">
<path d="M15.1257 7.31286C15.1257 8.92661 14.6019 10.4173 13.7194 11.6267L18.1704 16.0813C18.6099 16.5207 18.6099 17.2344 18.1704 17.6739C17.7309 18.1134 17.0172 18.1134 16.5777 17.6739L12.1267 13.2194C10.9173 14.1054 9.42661 14.6257 7.81286 14.6257C3.77321 14.6257 0.5 11.3525 0.5 7.31286C0.5 3.27321 3.77321 0 7.81286 0C11.8525 0 15.1257 3.27321 15.1257 7.31286ZM7.81286 12.3756C8.47771 12.3756 9.13605 12.2447 9.75029 11.9902C10.3645 11.7358 10.9226 11.3629 11.3928 10.8928C11.8629 10.4226 12.2358 9.86453 12.4902 9.25029C12.7447 8.63605 12.8756 7.97771 12.8756 7.31286C12.8756 6.64801 12.7447 5.98967 12.4902 5.37543C12.2358 4.76119 11.8629 4.20307 11.3928 3.73295C10.9226 3.26283 10.3645 2.88992 9.75029 2.63549C9.13605 2.38106 8.47771 2.25011 7.81286 2.25011C7.14801 2.25011 6.48967 2.38106 5.87543 2.63549C5.26119 2.88992 4.70307 3.26283 4.23295 3.73295C3.76283 4.20307 3.38992 4.76119 3.13549 5.37543C2.88106 5.98967 2.75011 6.64801 2.75011 7.31286C2.75011 7.97771 2.88106 8.63605 3.13549 9.25029C3.38992 9.86453 3.76283 10.4226 4.23295 10.8928C4.70307 11.3629 5.26119 11.7358 5.87543 11.9902C6.48967 12.2447 7.14801 12.3756 7.81286 12.3756Z" fill="#BA201F"/>
</svg>
